<svg xmlns="http://www.w3.org/2000/svg" viewBox="0 0 500 500"><g id="freepik--background-complete--inject-168"><rect x="280.5" y="75" width="73.43" height="71.14" style="fill:#ebebeb"></rect><rect x="288.89" y="83.13" width="56.65" height="54.88" style="fill:#fff"></rect><rect x="288.89" y="83.13" width="2.21" height="54.88" style="fill:#dbdbdb"></rect><rect x="353.93" y="75" width="2.21" height="71.14" style="fill:#dbdbdb"></rect><path d="M304.84,117.48c5.38,11.86,26.07,9.68,27.34-4.94.64-7.36-4.59-16.32-14.82-16.32h-.05C305.28,97.12,301.14,109.31,304.84,117.48Z" style="fill:#ebebeb"></path><path d="M303.85,93.25a4.86,4.86,0,0,1,3,1.5c.83.78,1.76,2.21,1.4,3.38-.09.3-.28.25-.6.24a4.34,4.34,0,0,1-2.6-1.43,14.4,14.4,0,0,1-2.05-2.29A.93.93,0,0,1,303.85,93.25Z" style="fill:#ebebeb"></path><path d="M312.31,88.8a5.1,5.1,0,0,1,2.12,2.93c.32,1,.59,2.36-.12,3.18a.5.5,0,0,1-.59.07c-.85-.4-1.23-1.64-1.56-2.46a8.28,8.28,0,0,1-.83-3.15A.66.66,0,0,1,312.31,88.8Z" style="fill:#ebebeb"></path><path d="M298.71,99.71c1.9-.42,4.49.21,5.21,2.23a.58.58,0,0,1-.39.69,3.49,3.49,0,0,1-2.23-.19c-.86-.27-1.75-.33-2.59-.66S297.57,100,298.71,99.71Z" style="fill:#ebebeb"></path><path d="M321.61,90.91a6.71,6.71,0,0,1,1.71-2.22c.35-.34.81,0,.74.47-.12.84-.1,1.72-.24,2.58a6.88,6.88,0,0,1-.64,2.44,1.08,1.08,0,0,1-2-.28A4.94,4.94,0,0,1,321.61,90.91Z" style="fill:#ebebeb"></path><path d="M298.2,107a5.11,5.11,0,0,1,3.48,1.32.66.66,0,0,1-.13,1,6,6,0,0,1-3.55.33c-.86-.08-2.81,0-2.71-1.32S297.24,106.91,298.2,107Z" style="fill:#ebebeb"></path><path d="M297.06,117.58a5.48,5.48,0,0,1,4.77-2.6.7.7,0,0,1,.6,1,6,6,0,0,1-4.8,2.56A.67.67,0,0,1,297.06,117.58Z" style="fill:#ebebeb"></path><path d="M300.41,126.69a7.63,7.63,0,0,1,5.16-4.11c.39,0,.58.44.47.8a9.09,9.09,0,0,1-.88,1.61,6.08,6.08,0,0,1-1.21,1.42,3.83,3.83,0,0,1-3,1C300.64,127.41,300.27,127.09,300.41,126.69Z" style="fill:#ebebeb"></path><path d="M312.18,126.25a.52.52,0,0,1,.9,0,4.1,4.1,0,0,1,.22,2.89,5.56,5.56,0,0,1-1.39,3.16,1.07,1.07,0,0,1-1.75-.46C309.62,129.81,311.09,127.79,312.18,126.25Z" style="fill:#ebebeb"></path><path d="M321.82,125.94a.68.68,0,0,1,1.06-.14,5.09,5.09,0,0,1,1.37,3c.11,1,.39,2.3-.1,3.19a1,1,0,0,1-1.56.2c-.73-.62-1-2.09-1.19-3A4.53,4.53,0,0,1,321.82,125.94Z" style="fill:#ebebeb"></path><path d="M330.05,121.23a3.25,3.25,0,0,1,1.21.32,9.42,9.42,0,0,1,1.16.83,14.08,14.08,0,0,0,1.91,1.47.82.82,0,0,1-.41,1.51,4.08,4.08,0,0,1-3.06-.79,4.43,4.43,0,0,1-1.18-1.26,3.07,3.07,0,0,1-.34-1.54A.57.57,0,0,1,330.05,121.23Z" style="fill:#ebebeb"></path><path d="M334.37,113.31a4.11,4.11,0,0,1,3.49.78c.67.53,1.55,1.6,1.22,2.53a.63.63,0,0,1-.42.42,4.76,4.76,0,0,1-2.26-.56,4.88,4.88,0,0,1-2.7-1.52A1.13,1.13,0,0,1,334.37,113.31Z" style="fill:#ebebeb"></path><path d="M333.27,105.27a2.47,2.47,0,0,1,1.6-.94,21.28,21.28,0,0,1,3.07-.57c.55-.09,1.21.48.81,1a5.89,5.89,0,0,1-2.23,2.09c-1,.46-2.45.95-3.21-.12A1.34,1.34,0,0,1,333.27,105.27Z" style="fill:#ebebeb"></path><path d="M328.14,97.83c.35-1.94,2.42-2.81,4.07-3.32.69-.21,1,.63.64,1.11s-.83,1.11-1.27,1.65-.67,1.06-1,1.58A1.33,1.33,0,0,1,328.14,97.83Z" style="fill:#ebebeb"></path><path d="M313.53,106.39c0,.54-.44-.52-1-.52s-1,1.06-1,.52a1,1,0,1,1,2,0Z" style="fill:#a6a6a6"></path><path d="M323.77,106.39c0,.54-.44-.5-1-.5s-1,1-1,.5a1,1,0,1,1,2,0Z" style="fill:#a6a6a6"></path><path d="M310.7,109a2.34,2.34,0,1,1-2.34-2.34A2.33,2.33,0,0,1,310.7,109Z" style="fill:#fff"></path><path d="M329.74,109a2.34,2.34,0,1,1-2.34-2.34A2.33,2.33,0,0,1,329.74,109Z" style="fill:#fff"></path><path d="M315.78,106.69a2,2,0,0,0,.81.8,2.45,2.45,0,0,0,2,0,2.15,2.15,0,0,0,.82-.8,1.44,1.44,0,0,1-.51,1.23,1.92,1.92,0,0,1-1.32.46,2,2,0,0,1-1.32-.46A1.48,1.48,0,0,1,315.78,106.69Z" style="fill:#a6a6a6"></path><rect x="373.96" y="145.63" width="73.43" height="71.14" style="fill:#ebebeb"></rect><rect x="382.35" y="153.75" width="56.65" height="54.88" style="fill:#fff"></rect><rect x="382.35" y="153.75" width="2.21" height="54.88" style="fill:#dbdbdb"></rect><rect x="447.39" y="145.63" width="2.21" height="71.14" style="fill:#dbdbdb"></rect><path d="M432,183.79a24.08,24.08,0,0,0-7-9.62,16.9,16.9,0,0,0-13.41-3.94,17.6,17.6,0,0,0-4.26,1.12c-7.81,3.14-10.86,11-11.55,13.82a10.92,10.92,0,0,1-2.17-.53c-.32-.33,3.22-15.47,17.43-17.44a19.64,19.64,0,0,1,2.25-.18,18.28,18.28,0,0,1,10.89,3.34c5.78,4,8.89,10.33,9.31,12.23C433.6,183,433,183.38,432,183.79Z" style="fill:#a6a6a6"></path><path d="M432,183.79a18.05,18.05,0,0,1-2,.72,21.77,21.77,0,0,0-6.05-8.06A15,15,0,0,0,412.06,173a15.86,15.86,0,0,0-4.45,1.28c-5.94,2.72-8.58,8.56-9.42,11.35-.84-.14-1.66-.29-2.38-.43.69-2.81,3.74-10.68,11.55-13.82a17.6,17.6,0,0,1,4.26-1.12A16.9,16.9,0,0,1,425,174.17,24.08,24.08,0,0,1,432,183.79Z" style="fill:#c7c7c7"></path><path d="M430,184.51a19.13,19.13,0,0,1-2.37.55,18.82,18.82,0,0,0-5.89-6.89,12.71,12.71,0,0,0-9.23-2.18,13.2,13.2,0,0,0-2.88.74c-5.17,1.93-7.68,6.56-8.68,9.33-.83-.13-1.8-.29-2.76-.46.84-2.79,3.48-8.63,9.42-11.35a15.86,15.86,0,0,1,4.45-1.28A15,15,0,0,1,424,176.45,21.77,21.77,0,0,1,430,184.51Z" style="fill:#dbdbdb"></path><path d="M427.63,185.06a1.4,1.4,0,0,1-.78,0c-.35-.27-3.12-4.19-7.2-6.2a10.32,10.32,0,0,0-5.48-1.13,9.91,9.91,0,0,0-1.95.36c-6.05,1.7-8.19,8.3-9,8.29-.17,0-1.08-.13-2.28-.31,1-2.77,3.51-7.4,8.68-9.33a13.2,13.2,0,0,1,2.88-.74,12.71,12.71,0,0,1,9.23,2.18A18.82,18.82,0,0,1,427.63,185.06Z" style="fill:#ebebeb"></path><path d="M436.37,186.22a5,5,0,0,1-2.72,4.76c-3,1.62-5.51-1.14-5.51-1.14a4.76,4.76,0,0,1-3.28,1.79,3.29,3.29,0,0,1-3.11-2s-1.9-.49-1.92-2c0-2,2.24-1.88,2.24-1.88s-.37-3.53,2.23-4.42a3.78,3.78,0,0,1,2.48-.05,4.06,4.06,0,0,1,1.77,1.14,3.6,3.6,0,0,1,3.23-2.75c2-.08,3.25,2.27,3.25,2.27a2.26,2.26,0,0,1,2.35,1.21A2.54,2.54,0,0,1,436.37,186.22Z" style="fill:#ebebeb"></path><path d="M389.89,184a5.19,5.19,0,0,1,4.13-3.87c3.51-.68,5.11,2.79,5.11,2.79a4.9,4.9,0,0,1,3.79-.77,3.41,3.41,0,0,1,2.46,2.92s1.73,1.07,1.29,2.56c-.58,2-2.78,1.19-2.78,1.19s-.71,3.59-3.56,3.69a4,4,0,0,1-2.46-.71,4.34,4.34,0,0,1-1.41-1.67,3.72,3.72,0,0,1-4,1.75c-2-.55-2.52-3.24-2.52-3.24a2.34,2.34,0,0,1-2-1.91A2.64,2.64,0,0,1,389.89,184Z" style="fill:#ebebeb"></path><path d="M409.23,174.5c0,.54-.44-.51-1-.51s-1,1-1,.51a1,1,0,0,1,2,0Z" style="fill:#a6a6a6"></path><path d="M419.47,174.5c0,.54-.44-.5-1-.5s-1,1-1,.5a1,1,0,0,1,2,0Z" style="fill:#a6a6a6"></path><path d="M406.39,177.1a2.34,2.34,0,1,1-2.34-2.34A2.34,2.34,0,0,1,406.39,177.1Z" style="fill:#fff"></path><path d="M425.43,177.1a2.34,2.34,0,1,1-2.33-2.34A2.33,2.33,0,0,1,425.43,177.1Z" style="fill:#fff"></path><path d="M411.47,174.8a2.1,2.1,0,0,0,.81.81,2.36,2.36,0,0,0,1,.21,2.18,2.18,0,0,0,1-.22,2.13,2.13,0,0,0,.81-.8,1.49,1.49,0,0,1-.5,1.24,2,2,0,0,1-1.33.45A2,2,0,0,1,412,176,1.47,1.47,0,0,1,411.47,174.8Z" style="fill:#a6a6a6"></path><path d="M87.45,96.34a.21.21,0,0,0-.41,0c-.71,9.07-.46,18.22-.35,27.32S86.52,141.89,87,151a.25.25,0,0,0,.49,0c.47-9.08.19-18.22.3-27.31S88.15,105.41,87.45,96.34Z" style="fill:#c7c7c7"></path><path d="M92,158.42c0,5.46-3.12,7.39-4.8,7.39s-4.79-1.94-4.79-7.39,4.79-14.19,4.79-14.19C87.39,144.51,92,153.05,92,158.42Z" style="fill:#ebebeb"></path><path d="M103.31,97.29a.24.24,0,0,0-.48,0c-.78,11.65-.42,23.46-.35,35.14s0,23.42.3,35.13a.29.29,0,0,0,.57,0c.26-11.71.24-23.43.31-35.13S104.09,108.94,103.31,97.29Z" style="fill:#c7c7c7"></path><path d="M107.86,177.73c0,5.46-3.12,7.39-4.79,7.39s-4.8-1.94-4.8-7.39,4.8-14.2,4.8-14.2C103.22,163.82,107.86,172.36,107.86,177.73Z" style="fill:#dbdbdb"></path><path d="M120.45,85.66a.24.24,0,0,0-.47,0c-.34,18.52-.65,37.05.1,55.56a.14.14,0,1,0,.27,0C121.09,122.71,120.79,104.18,120.45,85.66Z" style="fill:#c7c7c7"></path><path d="M125,147.17c0,5.46-3.12,7.39-4.8,7.39s-4.79-1.93-4.79-7.39S120.21,133,120.21,133C120.36,133.26,125,141.8,125,147.17Z" style="fill:#ebebeb"></path><path d="M137.82,92.17a.14.14,0,0,0-.27,0c-.71,6.07-.43,12.35-.44,18.45s0,12.31,0,18.46c.06,12.29-.05,24.6.26,36.9a.28.28,0,0,0,.55,0c.3-12.3.2-24.61.26-36.9,0-6,0-12,0-17.94C138.26,104.86,138.54,98.41,137.82,92.17Z" style="fill:#c7c7c7"></path><path d="M142.48,171.23c0,5.46-3.12,7.39-4.8,7.39s-4.79-1.93-4.79-7.39S137.68,157,137.68,157C137.84,157.32,142.48,165.86,142.48,171.23Z" style="fill:#dbdbdb"></path><path d="M154.14,93.22a.18.18,0,0,0-.35,0c-.79,10.83-.32,21.85-.3,32.7s-.41,21.88.35,32.71a.13.13,0,0,0,.25,0c.76-10.83.32-21.85.34-32.71S154.93,104.05,154.14,93.22Z" style="fill:#c7c7c7"></path><path d="M158.76,157.75c0,5.46-3.12,7.39-4.8,7.39s-4.79-1.93-4.79-7.39S154,143.56,154,143.56C154.12,143.84,158.76,152.38,158.76,157.75Z" style="fill:#ebebeb"></path><path d="M83.49,82.71s-10.9,2.42-10.9,12.45,14.36,9,14.36,9,.86,8.64,11.93,11.76,18.89-5.54,18.89-5.54a10.75,10.75,0,0,0,8.78,3.81,9,9,0,0,0,8-5s6.4,2.77,12.62.17a13.67,13.67,0,0,0,7.79-8.12s8.64,1,10.2-6.92S157,83.92,157,83.92s-.2-12.9-9.16-16.6a23,23,0,0,0-20.24,1.55s-10.9-14.35-27.15-11.06S83.49,82.71,83.49,82.71Z" style="fill:#ebebeb"></path><path d="M136,84.41c0-.11-.17-.08-.18,0-.24,1.62-1,7.77-3.35,7.85-2.23.06-4-5.28-4.48-7.2,0-.1-.16-.06-.16,0,.1,2.51,1.59,8.95,5,8.37C135.88,93,136.36,86.26,136,84.41Z" style="fill:#fff"></path><path d="M101.7,84.41c0-.11.16-.08.18,0,.23,1.62,1,7.77,3.35,7.85,2.22.06,4-5.28,4.48-7.2,0-.1.16-.06.15,0-.1,2.51-1.58,8.95-5,8.37C101.85,93,101.36,86.26,101.7,84.41Z" style="fill:#fff"></path><path d="M114.49,88.63A9.49,9.49,0,0,0,116.58,90a5.48,5.48,0,0,0,2.25.58,4.74,4.74,0,0,0,2.23-.49,7.29,7.29,0,0,0,2-1.5,4.32,4.32,0,0,1-4.25,3,4.65,4.65,0,0,1-2.64-.92A4.86,4.86,0,0,1,114.49,88.63Z" style="fill:#fff"></path><rect x="42.46" y="211.68" width="11.3" height="238.35" style="fill:#ebebeb"></rect><path d="M54.05,205.73a5.95,5.95,0,1,1-5.94-5.94A5.94,5.94,0,0,1,54.05,205.73Z" style="fill:#ebebeb"></path><rect x="344.54" y="211.68" width="11.3" height="238.35" style="fill:#ebebeb"></rect><circle cx="350.19" cy="205.73" r="5.95" style="fill:#ebebeb"></circle><rect x="53.75" y="371.48" width="290.79" height="35.29" style="fill:#ebebeb"></rect><rect x="53.76" y="371.48" width="11.1" height="35.28" style="fill:#dbdbdb"></rect><rect x="333.44" y="371.48" width="11.1" height="35.28" style="fill:#dbdbdb"></rect><path d="M193,401.38H79.16V376.86H193Zm-112.88-1H192V377.86H80.16Z" style="fill:#dbdbdb"></path><path d="M149.82,389.62H122.38v-5h27.44Zm-26.44-1h25.44v-3H123.38Z" style="fill:#dbdbdb"></path><path d="M319.14,401.38H205.26V376.86H319.14Zm-112.88-1H318.14V377.86H206.26Z" style="fill:#dbdbdb"></path><path d="M275.92,389.62H248.48v-5h27.44Zm-26.44-1h25.44v-3H249.48Z" style="fill:#dbdbdb"></path><rect x="53.75" y="360.77" width="290.79" height="10.71" style="fill:#dbdbdb"></rect><rect x="53.75" y="333.01" width="290.79" height="27.76" style="fill:#c7c7c7"></rect><rect x="53.76" y="225.16" width="290.48" height="9.52" style="fill:#ebebeb"></rect><rect x="58.3" y="234.68" width="3.84" height="136.8" style="fill:#ebebeb"></rect><rect x="76.81" y="234.68" width="3.84" height="136.8" style="fill:#ebebeb"></rect><rect x="95.31" y="234.68" width="3.84" height="136.8" style="fill:#ebebeb"></rect><rect x="113.81" y="234.68" width="3.84" height="136.8" style="fill:#ebebeb"></rect><rect x="132.32" y="234.68" width="3.84" height="136.8" style="fill:#ebebeb"></rect><rect x="150.82" y="234.68" width="3.84" height="136.8" style="fill:#ebebeb"></rect><rect x="169.32" y="234.68" width="3.84" height="136.8" style="fill:#ebebeb"></rect><rect x="187.83" y="234.68" width="3.84" height="136.8" style="fill:#ebebeb"></rect><rect x="206.33" y="234.68" width="3.84" height="136.8" style="fill:#ebebeb"></rect><rect x="224.84" y="234.68" width="3.84" height="136.8" style="fill:#ebebeb"></rect><rect x="243.34" y="234.68" width="3.84" height="136.8" style="fill:#ebebeb"></rect><rect x="261.84" y="234.68" width="3.84" height="136.8" style="fill:#ebebeb"></rect><rect x="280.35" y="234.68" width="3.84" height="136.8" style="fill:#ebebeb"></rect><rect x="298.85" y="234.68" width="3.84" height="136.8" style="fill:#ebebeb"></rect><rect x="317.35" y="234.68" width="3.84" height="136.8" style="fill:#ebebeb"></rect><rect x="335.86" y="234.68" width="3.84" height="136.8" style="fill:#ebebeb"></rect><rect x="53.76" y="225.16" width="290.48" height="9.52" style="fill:#ebebeb"></rect></g><g id="freepik--Floor--inject-168"><path d="M41.45,450.09c133.61-.61,283.49-.62,417.1,0-133.61.62-283.49.61-417.1,0Z" style="fill:#263238"></path></g><g id="freepik--Blocks--inject-168"><rect x="389.07" y="407.44" width="37.45" height="37.45" style="fill:#fff"></rect><path d="M431.68,450.06H383.9V402.28h47.78Zm-42.61-5.17h37.45V407.44H389.07Z" style="fill:#027701"></path><path d="M431.68,450.06H383.9V402.28h47.78Zm-42.61-5.17h37.45V407.44H389.07Z" style="fill:#fff;opacity:0.5"></path><path d="M415.25,418.6,410,425.85v7a1.39,1.39,0,0,1-1.42,1.42,1.43,1.43,0,0,1-1.42-1.42v-7l-5.24-7.25a1.39,1.39,0,1,1,2.24-1.66l4.42,6.05,4.42-6.05a1.42,1.42,0,0,1,2-.31A1.44,1.44,0,0,1,415.25,418.6Z" style="fill:#027701"></path><g style="opacity:0.5"><path d="M415.25,418.6,410,425.85v7a1.39,1.39,0,0,1-1.42,1.42,1.43,1.43,0,0,1-1.42-1.42v-7l-5.24-7.25a1.39,1.39,0,1,1,2.24-1.66l4.42,6.05,4.42-6.05a1.42,1.42,0,0,1,2-.31A1.44,1.44,0,0,1,415.25,418.6Z" style="fill:#fff"></path></g><rect x="431.68" y="402.28" width="14.62" height="47.78" style="fill:#027701"></rect><rect x="388.95" y="407.44" width="2.63" height="37.45" style="fill:#027701"></rect><rect x="434.75" y="407.44" width="9.09" height="37.45" transform="translate(878.6 852.34) rotate(180)" style="fill:#fff"></rect><rect x="442.1" y="407.44" width="1.75" height="37.45" transform="translate(885.94 852.34) rotate(180)" style="fill:#027701"></rect><rect x="442.1" y="407.44" width="1.75" height="37.45" transform="translate(885.94 852.34) rotate(180)" style="fill:#fff;opacity:0.5"></rect><rect x="379.63" y="311.88" width="37.45" height="37.45" style="fill:#fff"></rect><rect x="379.63" y="311.88" width="2.63" height="37.45" style="fill:#027701"></rect><path d="M422.25,354.5H374.47V306.71h47.78Zm-42.62-5.17h37.45V311.88H379.63Z" style="fill:#027701"></path><path d="M422.25,354.5H374.47V306.71h47.78Zm-42.62-5.17h37.45V311.88H379.63Z" style="fill:#fff;opacity:0.5"></path><path d="M401.92,334.42h-6.27l-1.27,3.36a1.45,1.45,0,0,1-1.34.9,1.53,1.53,0,0,1-.49-.08,1.46,1.46,0,0,1-.85-1.86l5.7-15.21a1.44,1.44,0,0,1,1.37-.9,1.4,1.4,0,0,1,1.37.9l5.71,15.21a1.42,1.42,0,0,1-1.35,1.94,1.39,1.39,0,0,1-1.31-.9Zm-1.06-2.84L398.77,326l-2.09,5.55Z" style="fill:#027701"></path><g style="opacity:0.5"><path d="M401.92,334.42h-6.27l-1.27,3.36a1.45,1.45,0,0,1-1.34.9,1.53,1.53,0,0,1-.49-.08,1.46,1.46,0,0,1-.85-1.86l5.7-15.21a1.44,1.44,0,0,1,1.37-.9,1.4,1.4,0,0,1,1.37.9l5.71,15.21a1.42,1.42,0,0,1-1.35,1.94,1.39,1.39,0,0,1-1.31-.9Zm-1.06-2.84L398.77,326l-2.09,5.55Z" style="fill:#fff"></path></g><rect x="422.25" y="306.71" width="14.62" height="47.78" style="fill:#027701"></rect><rect x="424.87" y="311.88" width="10.26" height="37.45" transform="translate(859.99 661.21) rotate(180)" style="fill:#fff"></rect><rect x="433.34" y="311.88" width="1.79" height="37.45" transform="translate(868.46 661.21) rotate(180)" style="fill:#027701"></rect><rect x="433.34" y="311.88" width="1.79" height="37.45" transform="translate(868.46 661.21) rotate(180)" style="fill:#fff;opacity:0.5"></rect><path d="M437.75,306.71H390V258.93h47.78Zm-42.62-5.16h37.45V264.1H395.13Z" style="fill:#455a64"></path><rect x="395.13" y="264.1" width="37.45" height="37.45" style="fill:#fff"></rect><rect x="395.13" y="264.1" width="2.63" height="37.45" style="fill:#37474f"></rect><path d="M408.87,289.48V274.24a1.42,1.42,0,0,1,1.42-1.42H414a4.91,4.91,0,0,1,3.93,7.85A5.54,5.54,0,0,1,415,290.9H410.4a0,0,0,0,1,0,0c-.05,0-.05,0-.08,0A1.44,1.44,0,0,1,408.87,289.48Zm2.87-9.66H414a2.07,2.07,0,0,0,2-2.09,2,2,0,0,0-2-2h-2.22Zm0,8.21H415a2.67,2.67,0,0,0,0-5.34h-3.23Z" style="fill:#455a64"></path><rect x="437.75" y="258.93" width="15.98" height="47.78" style="fill:#37474f"></rect><rect x="441" y="264.1" width="10.26" height="37.45" transform="translate(892.27 565.64) rotate(180)" style="fill:#fff"></rect><rect x="449.13" y="264.1" width="2.13" height="37.45" transform="translate(900.39 565.64) rotate(180)" style="fill:#455a64"></rect><path d="M414.5,402.28H366.71V354.5H414.5Zm-42.62-5.17h37.45V359.66H371.88Z" style="fill:#455a64"></path><rect x="371.88" y="359.66" width="37.45" height="37.45" style="fill:#fff"></rect><rect x="371.88" y="359.66" width="2.63" height="37.45" style="fill:#37474f"></rect><path d="M385.62,385V369.81a1.42,1.42,0,0,1,1.42-1.42h3.67a4.91,4.91,0,0,1,3.92,7.85,5.53,5.53,0,0,1-2.92,10.22h-4.57a0,0,0,0,1,0,0c-.05,0-.05,0-.08,0A1.43,1.43,0,0,1,385.62,385Zm2.87-9.65h2.22a2.08,2.08,0,0,0,2-2.1,2,2,0,0,0-2-2h-2.22Zm0,8.21h3.22a2.68,2.68,0,0,0,0-5.35h-3.22Z" style="fill:#455a64"></path><rect x="414.5" y="354.5" width="20.52" height="47.78" style="fill:#37474f"></rect><rect x="418.9" y="359.66" width="12.32" height="37.45" transform="translate(850.12 756.77) rotate(180)" style="fill:#fff"></rect><rect x="429.36" y="359.66" width="1.86" height="37.45" transform="translate(860.58 756.77) rotate(180)" style="fill:#455a64"></rect></g><g id="freepik--Character--inject-168"><path d="M134.89,273.66c5.05,5.28,30.45,39.69,55.37,47.2,26.54,8,49.82,10.12,60.18,5.11,28.37-13.73,16.42-44.23-1.64-49.46-22.71-6.58-35.4-2.36-48.31-6-1.49-.42-29-19.65-42.73-23.57C149,244.48,128.59,267.09,134.89,273.66Z" style="fill: rgb(173, 99, 89);"></path><path d="M162.66,249.4c.73-3.54-1.23-10.27-.34-13.06s2.54-11.41-.82-10.9-7.68,11.25-8.64,13.7-9.61-12.78-14.36-8.19,2.51,13.66,1.55,14.6-9.92-6.93-13.79-2.64,7,11.1,6.75,11.45-5-8.79-8.8-5.53,5.14,13.16,4.54,13.95-8.22-1.49-10.6,3,10.5,5.84,11.52,6.19,7.56,5.15,9.88,4S162.15,251.91,162.66,249.4Z" style="fill: rgb(173, 99, 89);"></path><path d="M187.9,262.68a38,38,0,0,1,12.88,7.65c1,.83,1.83,1.74,2.72,2.63s1.7,1.87,2.41,2.91a30.45,30.45,0,0,1,3.78,6.5,66,66,0,0,0-4.54-5.88,53.38,53.38,0,0,0-5.21-5.21,65.72,65.72,0,0,0-5.77-4.6C192.15,265.27,190.08,263.91,187.9,262.68Z" style="fill:#263238"></path><path d="M145.09,272.93a41.69,41.69,0,0,0,8.64-7,40.65,40.65,0,0,0,6.18-9.52c.14-.26-.25-.54-.38-.27a46.39,46.39,0,0,1-6.45,9.1,41.91,41.91,0,0,1-8.2,7.38C144.72,272.73,144.91,273,145.09,272.93Z" style="fill:#263238"></path><path d="M132.09,448.17c-13.66.47-49.53-48.22-36.93-57.39,10.14-7.38,52,13.54,54.41,32.3C151.17,435.55,141.66,447.84,132.09,448.17Z" style="fill: rgb(173, 99, 89);"></path><path d="M280,407.3c4.51,23.08-18.23,44.07-47.45,40.14-22.78-3.07-52-24.06-52-24.06s-25.85,21.31-31.87,25.75c-9.39,6.92-37.13-5.58-35.2-22.89,1.39-12.44,12.34-47.19,49.53-70.71C200.51,331.8,273.89,376.22,280,407.3Z" style="fill: rgb(173, 99, 89);"></path><g style="opacity:0.1"><path d="M132.09,448.17c-13.66.47-49.53-48.22-36.93-57.39,10.14-7.38,52,13.54,54.41,32.3C151.17,435.55,141.66,447.84,132.09,448.17Z" style="fill:#050400"></path><path d="M280,407.3c4.51,23.08-18.23,44.07-47.45,40.14-22.78-3.07-52-24.06-52-24.06s-25.85,21.31-31.87,25.75c-9.39,6.92-37.13-5.58-35.2-22.89,1.39-12.44,12.34-47.19,49.53-70.71C200.51,331.8,273.89,376.22,280,407.3Z" style="fill:#050400"></path></g><path d="M192.64,431.41a56.12,56.12,0,0,1-14-12.32c-1.9-2.33-3.66-4.74-5.34-7.23a51.33,51.33,0,0,1-4.92-8.44.27.27,0,0,0-.51.2c.59,1.56,1,3.17,1.64,4.7a47.08,47.08,0,0,0,2.27,4.41,40.13,40.13,0,0,0,5.64,7.58,56,56,0,0,0,15.1,11.33C192.64,431.71,192.77,431.49,192.64,431.41Z" style="fill:#263238"></path><path d="M118.28,423.08a41.55,41.55,0,0,1,1.1-13.8c.53-2.1,1.18-4.14,1.9-6.14a32.5,32.5,0,0,1,2.79-6.27c.13-.2-.2-.47-.34-.27-.65.94-1.43,1.75-2,2.74a29.5,29.5,0,0,0-1.59,3.06,27.7,27.7,0,0,0-2,6.46,43.62,43.62,0,0,0,0,14.2C118.1,423.18,118.29,423.2,118.28,423.08Z" style="fill:#263238"></path><path d="M214.77,353.53c.58-1.55,31.28,10.53,59.6,9.13,34.36-1.69,54.68-10.12,56.66-9,4,2.21,14,42,6,64.81s-37.9,39.56-63.37,36.85S183.28,438.36,214.77,353.53Z" style="fill:#027701"></path><g style="opacity:0.6000000000000001"><path d="M214.77,353.53c.58-1.55,31.28,10.53,59.6,9.13,34.36-1.69,54.68-10.12,56.66-9,4,2.21,14,42,6,64.81s-37.9,39.56-63.37,36.85S183.28,438.36,214.77,353.53Z" style="fill:#fff"></path></g><path d="M331,353.62c-42,20.83-113.33,4-116.26-.09,0,0-3.31-24.87,31.46-73.82,9.71-13.68,45.61-13.12,55.62-2.72C328.71,304.86,331.71,353.28,331,353.62Z" style="fill:#027701"></path><g style="opacity:0.6000000000000001"><path d="M331,353.62c-42,20.83-113.33,4-116.26-.09,0,0-3.31-24.87,31.46-73.82,9.71-13.68,45.61-13.12,55.62-2.72C328.71,304.86,331.71,353.28,331,353.62Z" style="fill:#fff"></path></g><path d="M255.51,306.68c1.41,7.86,8.35,14.31,8.35,14.31s9.33-1.71,14.76-7.59c4.53-4.9,4.55-11.62.45-14.28-5.88-3.82-10.81,6.88-10.81,6.88s1.62-11.66-5.4-11.6C258,294.45,254.34,300.12,255.51,306.68Z" style="fill:#027701"></path><path d="M239.29,330.84c2.62,4.29,8.15,6.49,8.15,6.49s5.09-3.14,6.93-7.83c1.54-3.92,0-7.86-3-8.49-4.32-.89-4.77,6.51-4.77,6.51s-1.7-7.21-5.81-5.57C238,323.1,237.11,327.26,239.29,330.84Z" style="fill:#027701"></path><path d="M237.56,307.92a12.56,12.56,0,0,0,6.62,2,12.55,12.55,0,0,0,2.34-6.51c0-2.78-1.93-4.84-3.94-4.49-2.88.5-1.33,5.17-1.33,5.17s-2.83-4-4.95-2C234.82,303.49,235.33,306.25,237.56,307.92Z" style="fill:#027701"></path><path d="M305.46,272.91c-17.5,4.42-28.13,25.28-16.26,43.88s37,14.77,44.08.32C343.29,296.68,327.93,267.24,305.46,272.91Z" style="fill:#027701"></path><path d="M395.51,225.79c-1.95,7-8.05,49.38-26.46,67.78-19.6,19.6-39.11,32.48-50.6,33-31.5,1.33-35.39-31.2-21.95-44.35,16.89-16.53,30.07-18.82,39.74-28.1,1.12-1.07,16.22-31,26.5-41C369.31,206.74,398,217,395.51,225.79Z" style="fill: rgb(173, 99, 89);"></path><path d="M359.56,217.55c-2.31-2.77-3.77-9.63-5.87-11.66s-7.64-8.86-4.43-10,12.08,6.28,14.09,8,2.42-15.81,8.78-14,4.25,13.22,5.53,13.6,5.47-10.8,10.91-8.86-.93,13.1-.53,13.29.29-10.14,5.14-9,1.69,14,2.59,14.44,6.54-5.21,10.74-2.42S400,221,399.29,221.79s-4.23,8.11-6.82,8.19S361.21,219.53,359.56,217.55Z" style="fill: rgb(173, 99, 89);"></path><path d="M343.61,241.19A38,38,0,0,0,335.88,254c-.45,1.18-.79,2.39-1.15,3.6a36.37,36.37,0,0,0-.75,3.71,30.47,30.47,0,0,0-.25,7.51,65.53,65.53,0,0,1,1.22-7.33,52,52,0,0,1,2.12-7,65.24,65.24,0,0,1,2.91-6.78A74.08,74.08,0,0,1,343.61,241.19Z" style="fill:#263238"></path><path d="M386.18,230a41.35,41.35,0,0,1-10.92-2.08,40.36,40.36,0,0,1-10-5.46c-.24-.17,0-.59.21-.42a46.33,46.33,0,0,0,10,5,41.63,41.63,0,0,0,10.71,2.62C386.41,229.62,386.38,230,386.18,230Z" style="fill:#263238"></path><path d="M251.91,277.52c-2.73,3.34-.52,10.19,14.56,10,9-.1,22.48-3,23.74-11.36C291.16,269.9,257.07,271.22,251.91,277.52Z" style="fill:#027701"></path><path d="M246.75,271.2c5.05,1.59,6.68,3.77,7.86,9.41s25.76,5.76,32-3.09c5.16-7.35,8.72-9.42,12.84-11.51S246.75,271.2,246.75,271.2Z" style="fill: rgb(173, 99, 89);"></path><path d="M334.63,234.88c-12.27,25.8-40.05,34.27-54.75,36.3-22.8,3.16-84.73.78-95.69-40.29-2.54-9.53-2.36-23.07-.43-37.41,3.7-27.43,13.85-57.75,23.76-68.24,21-22.24,69.8-30.1,107.14-7C344.72,136.76,347.23,208.41,334.63,234.88Z" style="fill: rgb(173, 99, 89);"></path><path d="M272.27,181.17a52.56,52.56,0,0,1-4.92-2.18c-1.88-.86-3.47-1.35-4.6-3.18a2.77,2.77,0,0,1,.71-3.32c2.09-1.58,4.66-1.1,7-.16a10.08,10.08,0,0,1,5.46,4.81C277.15,179.44,274.58,182,272.27,181.17Z" style="fill:#263238"></path><path d="M216.2,173.66a49.9,49.9,0,0,0,5.29-.76c2-.31,3.67-.36,5.25-1.81a2.75,2.75,0,0,0,.21-3.35c-1.58-2.08-4.16-2.31-6.61-2a10,10,0,0,0-6.52,3.14C212,170.7,213.79,173.79,216.2,173.66Z" style="fill:#263238"></path><path d="M248.6,221.58a17,17,0,0,1,.35,2.32c.31,3.1.07,8.45-4.74,9.79a8.55,8.55,0,0,1-5.49-.45c-4.78-1.82-8.72-7.61-8.72-7.61C240.36,228.76,248.6,221.58,248.6,221.58Z" style="fill:#263238"></path><path d="M249,223.9c.31,3.1.07,8.45-4.74,9.79a8.55,8.55,0,0,1-5.49-.45,12.83,12.83,0,0,1,4.39-6.59A13.12,13.12,0,0,1,249,223.9Z" style="fill:#ff99ba"></path><path d="M228.75,181.9c-2.47,11.18-1.2,7.23-4.15,18.3-2.51,0-13.92-.88-13.17.2,2.67,3.88,11.11,11,11.06,11-1.59,2.93-7,5.74-6.82,6,12.77,15.49,27.52,8.86,32.69,4.67,1-.84.65-.86,0-.51-5.09,2.88-19.66,6.64-28.71-4a16.19,16.19,0,0,0,5.06-6.1c.14-.3-6.44-6.24-9-9.37,3.47.12,7.7.57,10.26.69.61,0,3.18-8.67,3.74-20.83A.51.51,0,0,0,228.75,181.9Z" style="fill:#263238"></path><path d="M215.88,190.33a7.77,7.77,0,0,1,2.33-3.38,5.59,5.59,0,0,1,4.33-1,5,5,0,0,1,3.55,2.77,8.64,8.64,0,0,1,.78,4,16.28,16.28,0,0,1-.28,2.43,10.84,10.84,0,0,1-2,4.62,16.25,16.25,0,0,0,.49-3.63,22.5,22.5,0,0,0-.14-3.31c-.28-2.24-1.2-4.23-2.91-4.44-1.77-.37-3.35.83-4.45,2.83a36.34,36.34,0,0,0-2.59,6.55A15.79,15.79,0,0,1,215.88,190.33Z" style="fill:#263238"></path><path d="M219.15,186.33c-1.52.7-3.1,2.1-4.8,2-2-.08-3.19-2-4.23-3.73-.11-.19-.26-.07-.3.14-.47,3,.26,6.33,3.46,7.24,2.92.84,5.44-1.56,6.63-4.51C220.13,187,219.76,186,219.15,186.33Z" style="fill:#263238"></path><path d="M269.34,197a7.61,7.61,0,0,0-1.38-3.86,5.54,5.54,0,0,0-3.91-2.13,5,5,0,0,0-4.15,1.76,8.83,8.83,0,0,0-1.77,3.63,16.83,16.83,0,0,0-.36,2.42,11,11,0,0,0,.71,5,16.63,16.63,0,0,1,.47-3.63,21.59,21.59,0,0,1,1-3.16c.85-2.09,2.24-3.79,3.95-3.55s3,1.67,3.57,3.89a36,36,0,0,1,.82,7A15.74,15.74,0,0,0,269.34,197Z" style="fill:#263238"></path><path d="M267.22,192.24c1.28,1.07,2.45,2.83,4.11,3.2,1.91.42,3.58-1.07,5.05-2.52.15-.15.27,0,.25.22-.33,3.06-1.88,6.05-5.21,6.11-3,.05-4.86-2.92-5.24-6.08C266.1,192.59,266.7,191.81,267.22,192.24Z" style="fill:#263238"></path><path d="M298.92,143.37c-7.21,2.84-13.92,5.56-21.76,6.39a64.2,64.2,0,0,1-24.27-2.09c-12.57-3.53-26-10.17-38.88-4.58a.08.08,0,0,0,.07.15c16.72-5.27,31.83,7.6,48,9.78,12.47,1.66,27.53-.74,37.39-8.71C300,143.9,299.5,143.14,298.92,143.37Z" style="fill:#263238"></path><path d="M317.92,215.52a33.85,33.85,0,0,0-8.86-14.14c-5-4.87-10.13-8.94-13.34-15.29-6.91-13.66-5.22-29.94.93-43.37.17-.38-.48-.73-.69-.35-6.65,11.78-10,25.1-5.43,38.42a38.69,38.69,0,0,0,10.26,15.62c6.59,6.16,12.91,10.74,16.43,19.32C317.37,216.11,318.05,215.91,317.92,215.52Z" style="fill:#263238"></path><path d="M328.93,238.68c-5.18-1.74-16.24-12-16-22s-4.79-15.69-5.69-18.19-20.58-12.62-13.72-50.91c0,0-21.07,4.84-43.09-4.21-25-10.3-45.51-2-56.13,6.72-5.28,4.33,2.36-31.24,34.12-44.31,13.65-5.62,25-5.87,33.47-7.69a32.75,32.75,0,0,0,10.4-4c7.66-6.29,10.43-16.77,4.53-25.33-11.59-16.77-36.14-16.38-49-2.11-.09.11-.3,0-.21-.12A32,32,0,0,1,239,57.67c0-.06,0-.1,0-.13a52.48,52.48,0,0,1,13.54-4.45,51.54,51.54,0,0,0-20.1,7.61c-.16.11-.39-.14-.22-.27,9.87-7.15,24.35-11.55,37.27-9.46a42.32,42.32,0,0,0-28.39,2.19c-.17.08-.28-.18-.12-.27,10.93-6.27,27.54-6.8,38.61,0a21.5,21.5,0,0,1,7.16,7.13A26.67,26.67,0,0,1,292,70.23C303.44,55,325.75,48,344.13,59.88c.23.16,0,.5-.26.36A36.29,36.29,0,0,0,304,62a37.93,37.93,0,0,0-7.87,7.45,30.37,30.37,0,0,1,3.33-2.49c14.59-9.25,33.77-3.67,45.68,7.57a.1.1,0,0,1-.13.15,62.76,62.76,0,0,0-8.84-5.59,25.18,25.18,0,0,1,6.77,5.6.11.11,0,0,1-.14.17,29.49,29.49,0,0,0-10.36-5.6,32.46,32.46,0,0,1,13.21,10.26.37.37,0,0,1-.59.46c-8.32-10.08-22.4-14.23-34.51-8.85A27.56,27.56,0,0,0,307.15,73a32.06,32.06,0,0,0-5.62,5,13.64,13.64,0,0,0-2.78,7.37h0a2.63,2.63,0,0,0,0,.3,18,18,0,0,0,.29,4.23c0,.08.06.17.08.24a14.68,14.68,0,0,0,.38,1.52c.09.37.22.75.35,1.14.07.19.13.38.21.56,1.75,4.83,5.7,11.52,14.52,19.12,12.05,10.35,48.45,29.27,38.92,83.69C349.32,220,328.93,238.68,328.93,238.68Z" style="fill:#263238"></path><path d="M278.51,68.8c-7.72-12.83-27.18-14.6-39.45-7.28-.25.15-.07.56.2.42,11.12-6,28.55-3.95,35.95,6.84,8.28,12.06,3.05,25.58-9.21,32.15a.58.58,0,0,0,.49,1.06C279.8,96.28,286.26,81.68,278.51,68.8Z" style="fill:#263238"></path><path d="M331.37,74.76a.11.11,0,0,0,.07-.2c-10.17-3.85-27.44-5.5-33.37,6-6.17,11.93,1.18,26.71,12.26,32.71.62.34,1.59-.42.95-1-7.95-7.51-15.44-16.73-11.91-28.49C303.29,70.64,320.89,71.3,331.37,74.76Z" style="fill:#263238"></path><path d="M358.89,172.13c-2.61-21.74-18-38.43-34.91-51,0,0,0,0,0,0,15.65,13.28,30.15,28.16,32.68,49.49,1.34,11.36,1.51,24.23-3.57,34.71s-14.15,18.26-22.67,26.05a.76.76,0,0,0,1,1.17c9-7.24,18-15.18,23.42-25.55C360.27,196.47,360.28,183.67,358.89,172.13Z" style="fill:#263238"></path><path d="M270.12,96.19c-7.62,3.82-16.21,3.87-24.56,4.55-8.74.7-19,2-27,5.7-13.22,6.12-24.35,22.69-22.49,37.34.08.62,1.14.6,1.13-.05-.15-9,3.27-17.34,8.81-24.37,6.31-8,13.68-12,23.61-14.37a183.17,183.17,0,0,1,23-3.6c6.42-.66,12.06-1.73,17.59-5C270.31,96.31,270.23,96.14,270.12,96.19Z" style="fill:#263238"></path><path d="M338.37,252.4c-12.86-11.4.33-27.73,7.11-38.8.2-.31-.26-.65-.47-.34-7.39,10.86-24.47,29.24-7.26,40A.53.53,0,0,0,338.37,252.4Z" style="fill:#263238"></path><path d="M329.41,255.28c-5-10.44,0-21.62,5.8-30.52a.79.79,0,0,0-1.28-.92c-7,9.53-10.53,20.59-4.8,31.56C329.22,255.57,329.49,255.45,329.41,255.28Z" style="fill:#263238"></path><path d="M338.7,247.51c-9.82-9.65,2.41-24.55,7.77-33.06.42-.66-.55-1.45-1.09-.85-6.37,7.15-19.08,26.32-6.85,34.12A.14.14,0,0,0,338.7,247.51Z" style="fill:#263238"></path><path d="M310.65,210.67s14.4-21.53,27.75-20.91c14.12.67,14.79,26.48,4.24,36.23-12.39,11.45-29.35,5.38-29.35,5.38Z" style="fill: rgb(173, 99, 89);"></path><path d="M332.83,204.38a32.92,32.92,0,0,1,7.05-4.14.28.28,0,0,0-.2-.52c-10.41,3.22-20.57,13-20.13,24.72a.37.37,0,0,0,.72.11q.51-1.5,1-3c2-2.63,3.82-5,6.89-6.69a18.45,18.45,0,0,1,9.58-2.17c.39,0,.38-.54,0-.59a18.27,18.27,0,0,0-14.42,4.15,28.82,28.82,0,0,1,4.27-6.94,33.07,33.07,0,0,1,5.21-5" style="fill:#263238"></path><path d="M316.18,231.12c-.08,0-.11.11,0,.13S316.26,231.14,316.18,231.12Z" style="fill:#263238"></path><path d="M281.15,88.55S270.94,55.9,265.6,66.26s-2.27,18-2.27,18-8,10.88-4.78,14.43,19.77-.17,20.92-3.15A35.79,35.79,0,0,0,281.15,88.55Z" style="fill:#027701"></path><path d="M281.15,88.54a36.86,36.86,0,0,1-1.67,7c-.58,1.43-4.7,3.06-9.22,3.94a47.84,47.84,0,0,1-.07-9.27c.49-3.77,5.69-8,8.12-9.76C280,84.94,281.15,88.54,281.15,88.54Z" style="fill:#050400;opacity:0.1"></path><path d="M286.56,90S318.78,65.44,320,78.12s-7.28,18.1-7.28,18.1,4.44,14.69-1.86,16.17-26.22-11.45-26.05-14.88A28,28,0,0,1,286.56,90Z" style="fill:#027701"></path><path d="M294.3,96.79a16.23,16.23,0,0,1-3.62,6.88c-3.49-2.53-6-4.94-5.91-6.16a27.75,27.75,0,0,1,1.79-7.5s2.13-1.61,5.28-3.79C293.05,88.49,295,92.89,294.3,96.79Z" style="fill:#050400;opacity:0.1"></path><path d="M290.94,95.43a9.18,9.18,0,1,1-6.81-11.06A9.18,9.18,0,0,1,290.94,95.43Z" style="fill:#027701"></path><circle cx="198.69" cy="203.54" r="9.63" style="fill:#ff99ba;opacity:0.5"></circle><circle cx="287.56" cy="212.34" r="10.61" style="fill:#ff99ba;opacity:0.5"></circle><path d="M251.06,370c22.58-11.41,56-3,71.49,22.54s.56,70.22-53.28,63.73S219.66,385.84,251.06,370Z" style="fill:#027701"></path><path d="M184.68,470c-13.31,3.08-57.86-37.82-47.27-49.23C146,411.57,191.06,424.05,197,442,201,453.93,194,467.83,184.68,470Z" style="fill: rgb(173, 99, 89);"></path><path d="M263.73,360.64c20.52,5.8,56.16,25.3,57.82,48.76s-16.48,44.76-45.83,42c-22.89-2.17-51.31-15.69-51.31-15.69S215,453.87,209,459.9c-8.21,8.29-29.14,16.89-39.32,2.75-7.28-10.1-7.49-74.82,29.82-98.16C220.73,351.19,240.19,354,263.73,360.64Z" style="fill: rgb(173, 99, 89);"></path><path d="M233,413.17a42.36,42.36,0,0,1-3.54,13.2c-.87,1.89-1.83,3.68-2.85,5.42a28.36,28.36,0,0,1-3.68,5.26c-.15.16.1.53.26.38.77-.71,1.62-1.27,2.34-2a25.14,25.14,0,0,0,5-8.23,46,46,0,0,0,2.67-13.92C233.13,413.12,233,413.05,233,413.17Z" style="fill:#263238"></path><path d="M172.07,447.11A41.86,41.86,0,0,1,168,433.87c-.28-2.14-.43-4.27-.5-6.4a32.48,32.48,0,0,1,.28-6.85c.05-.24-.36-.37-.42-.13-.26,1.11-.68,2.15-.88,3.29a30.13,30.13,0,0,0-.34,3.44,27,27,0,0,0,.55,6.73,43.59,43.59,0,0,0,5.19,13.22C172,447.27,172.13,447.22,172.07,447.11Z" style="fill:#263238"></path></g><g id="freepik--feeding-bottle--inject-168"><path d="M134.2,449.55c-4.44,8.47-60.78,8.58-65.65-1.26-3.23-6.52,2.93-85,8-99.66.91-2.6,8.34-6.62,27.41-7.14,5.42-.14,21.09,1.51,24.28,5.13C131.77,350.62,138.43,441.5,134.2,449.55Z" style="fill:#fff"></path><path d="M83.11,361.37a38.78,38.78,0,0,1-9-1.67c.1-.61.2-1.19.29-1.76a79.89,79.89,0,0,0,8.74,2.48C83.71,360.54,83.71,361.41,83.11,361.37Z" style="fill:#a9b7c4"></path><path d="M78.5,401.5a38.87,38.87,0,0,1-8.92-1.65c0-.6.09-1.2.15-1.79a81.94,81.94,0,0,0,8.82,2.48C79.1,400.67,79.1,401.54,78.5,401.5Z" style="fill:#a9b7c4"></path><path d="M76.28,421a38.5,38.5,0,0,1-8-1.4c0-.59.06-1.18.09-1.79a83,83,0,0,0,8,2.23C76.88,420.17,76.88,421,76.28,421Z" style="fill:#a9b7c4"></path><path d="M81.94,371.71A39.09,39.09,0,0,1,72.65,370c.08-.61.16-1.2.23-1.78A84.43,84.43,0,0,0,82,370.75C82.54,370.88,82.54,371.75,81.94,371.71Z" style="fill:#a9b7c4"></path><path d="M79.6,392.33a38,38,0,0,1-9.21-1.74c0-.59.11-1.2.17-1.8a79.78,79.78,0,0,0,9.09,2.59C80.19,391.5,80.19,392.37,79.6,392.33Z" style="fill:#a9b7c4"></path><path d="M75.29,430.18a38.72,38.72,0,0,1-7.47-1.24h0c0-.58,0-1.15.07-1.75,2.43.79,4.91,1.46,7.46,2C75.9,429.34,75.9,430.22,75.29,430.18Z" style="fill:#a9b7c4"></path><path d="M85.2,383.35a39.42,39.42,0,0,1-13.86-2.19c.06-.6.13-1.18.19-1.77a75.67,75.67,0,0,0,13.63,3C85.72,382.46,85.8,383.33,85.2,383.35Z" style="fill:#a9b7c4"></path><path d="M81.94,412a38.85,38.85,0,0,1-13.12-1.93c0-.6.07-1.2.12-1.81a75,75,0,0,0,13,2.78C82.47,411.13,82.55,412,81.94,412Z" style="fill:#a9b7c4"></path><path d="M134.2,449.55c-4.44,8.47-60.78,8.58-65.65-1.26-3.23-6.52,2.93-85,8-99.66.91-2.6,8.34-6.62,27.41-7.14,5.42-.14,21.09,1.51,24.28,5.13C131.77,350.62,138.43,441.5,134.2,449.55Z" style="fill:#fff"></path><path d="M134.2,449.55c-4.86,6.76-31.25,6.52-39.53,6.09-6.38-.48-23.34-1.4-26.38-7.53a6.17,6.17,0,0,1-.33-1.28,74.9,74.9,0,0,1-.54-11.5c.06-6.82.35-13.63.73-20.43q1.17-20.41,3.51-40.73c.82-6.77,1.69-13.53,3-20.24.7-2.44.72-5.57,2.84-7.29,3.52-2.62,8-3.53,12.16-4.31,11.78-1.91,24.18-1.88,35.55,2.05a8.6,8.6,0,0,1,3.37,2.14c1.54,3.6,1.66,7.6,2.29,11.39,2.06,16.91,3.16,33.92,4,50.92.33,6.8.58,13.61.66,20.42,0,3.41,0,6.81-.08,10.22s-.1,6.89-1.29,10.08Zm0,0c1.18-3.19,1.05-6.72,1.25-10.08s.09-6.81.05-10.22c-.38-20.42-1.86-40.82-4-61.13-.8-6.71-1.38-13.58-3.05-20.12a2.49,2.49,0,0,0-.85-1.46c-2.11-1.67-4.92-2.23-7.51-2.87a72.78,72.78,0,0,0-20.18-1.55c-6.66.47-13.63,1.13-19.72,4-1.43.76-3,1.65-3.33,3.14-.51,1.59-.86,3.25-1.22,4.9-1.35,6.65-2.25,13.4-3.09,20.15-2.34,20.27-4.16,40.65-4.66,61.05a75.11,75.11,0,0,0,.42,11.43c.59,5.41,11.8,6.89,16.18,7.7a137.61,137.61,0,0,0,30.56.79c5.1-.59,16.06-1.35,19.12-5.7Z" style="fill:#c7c7c7"></path><path d="M83.11,361.37a38.78,38.78,0,0,1-9-1.67c.1-.61.2-1.19.29-1.76a79.89,79.89,0,0,0,8.74,2.48C83.71,360.54,83.71,361.41,83.11,361.37Z" style="fill:#dbdbdb"></path><path d="M78.5,401.5a38.87,38.87,0,0,1-8.92-1.65c0-.6.09-1.2.15-1.79a81.94,81.94,0,0,0,8.82,2.48C79.1,400.67,79.1,401.54,78.5,401.5Z" style="fill:#dbdbdb"></path><path d="M76.28,421a38.5,38.5,0,0,1-8-1.4c0-.59.06-1.18.09-1.79a83,83,0,0,0,8,2.23C76.88,420.17,76.88,421,76.28,421Z" style="fill:#dbdbdb"></path><path d="M81.94,371.71A39.09,39.09,0,0,1,72.65,370c.08-.61.16-1.2.23-1.78A84.43,84.43,0,0,0,82,370.75C82.54,370.88,82.54,371.75,81.94,371.71Z" style="fill:#dbdbdb"></path><path d="M79.6,392.33a38,38,0,0,1-9.21-1.74c0-.59.11-1.2.17-1.8a79.78,79.78,0,0,0,9.09,2.59C80.19,391.5,80.19,392.37,79.6,392.33Z" style="fill:#dbdbdb"></path><path d="M75.29,430.18a38.72,38.72,0,0,1-7.47-1.24h0c0-.58,0-1.15.07-1.75,2.43.79,4.91,1.46,7.46,2C75.9,429.34,75.9,430.22,75.29,430.18Z" style="fill:#dbdbdb"></path><path d="M85.2,383.35a39.42,39.42,0,0,1-13.86-2.19c.06-.6.13-1.18.19-1.77a75.67,75.67,0,0,0,13.63,3C85.72,382.46,85.8,383.33,85.2,383.35Z" style="fill:#dbdbdb"></path><path d="M81.94,412a38.85,38.85,0,0,1-13.12-1.93c0-.6.07-1.2.12-1.81a75,75,0,0,0,13,2.78C82.47,411.13,82.55,412,81.94,412Z" style="fill:#dbdbdb"></path><path d="M125.11,343.32c-.23,2.53-.63,4.57-1.17,4.82-1.47.7-6.83,4.07-20,4.52-12.44.42-21.21-3.63-22-4.78s-.75-13.22-.2-14.25c.45-.85,5.84-4.16,14.93-5.1a48.31,48.31,0,0,1,6.72-.21c11.57.42,20.49,2.79,21.47,4C125.44,333,125.51,338.92,125.11,343.32Z" style="fill:#455a64"></path><path d="M119,336.27c-.77.69-5.85,3.55-16,3.29-9.47-.22-14.94-3.09-15.44-4.3,0,0-.19-5.75,3.36-9.5,2.31-2.44,6.71-3.51,6.71-5.83s-4-5.2-3.66-9,4.43-7.84,8.75-7.55a17.65,17.65,0,0,1,3.12.45c3.25.79,6.06,2.72,5.8,7.11-.36,5.77-3.81,6.21-3.61,8.86s2.61,2.59,6.88,4.72c1.69.84,2.79,2.72,3.46,4.75C119.42,332.41,119.43,335.85,119,336.27Z" style="fill:#027701"></path><g style="opacity:0.5"><path d="M119,336.27c-.77.69-5.85,3.55-16,3.29-9.47-.22-14.94-3.09-15.44-4.3,0,0-.19-5.75,3.36-9.5,2.31-2.44,6.71-3.51,6.71-5.83s-4-5.2-3.66-9,4.43-7.84,8.75-7.55a17.65,17.65,0,0,1,3.12.45c3.25.79,6.06,2.72,5.8,7.11-.36,5.77-3.81,6.21-3.61,8.86s2.61,2.59,6.88,4.72c1.69.84,2.79,2.72,3.46,4.75C119.42,332.41,119.43,335.85,119,336.27Z" style="fill:#fff"></path></g><g style="opacity:0.2"><path d="M134.2,449.55c-3.48,6.63-38.79,8.14-56.28,3.75l-1.35-.36-.44-.13h0l-.63-.2h0l-1-.34h0l-.48-.18-.86-.34c-.36-.16-.7-.31-1-.48a10.2,10.2,0,0,1-2.45-1.61s0,0,0,0a4.7,4.7,0,0,1-1.06-1.36c10.72,3.58,25.11.76,35.49-3l.14,0c1.29-.46,2.52-1,3.67-1.44l.35-.16c1.14-.48,2.2-1,3.16-1.46l0,0a1.19,1.19,0,0,1,.22-.12l.1,0,.26-.13h0a23.87,23.87,0,0,0,4.16-2.65h0a3.23,3.23,0,0,0,.27-.23h0l.09-.09a3.27,3.27,0,0,0,.8-1,2.18,2.18,0,0,0,.09-.23,62.68,62.68,0,0,0,3.1-11.43l0-.05,0-.2h0l.12-.57h0c0-.17.07-.35.1-.53q.52-2.77,1-5.87c0-.11,0-.22,0-.33.07-.41.13-.82.19-1.24a.51.51,0,0,0,0-.13c.12-.78.24-1.58.35-2.39.14-1,.28-1.95.41-2.94,0-.14,0-.28,0-.43l.24-1.84.09-.69c0-.36.09-.73.14-1.1l0-.27h0c.07-.6.15-1.2.22-1.81l.06-.54.06-.52.15-1.3c.07-.57.13-1.15.19-1.73q.07-.56.12-1.11c0-.37.08-.74.12-1.11v0l.06-.47v0c0-.06,0-.12,0-.19l.21-2c0-.34.07-.67.1-1a1.8,1.8,0,0,0,0-.22s0,0,0-.05c0-.27,0-.54.08-.81.07-.69.13-1.38.2-2.08l0-.32c0-.24,0-.49.07-.73.08-.83.15-1.66.23-2.48.16-1.73.31-3.45.46-5.15a0,0,0,0,1,0,0,1.64,1.64,0,0,1,0-.22c0-.21,0-.42,0-.63l0-.39.15-1.82,0-.46h0c0-.13,0-.26,0-.39,0-.34,0-.67.08-1v0l0-.32a1.79,1.79,0,0,1,0-.23c0-.25,0-.51.05-.76a.53.53,0,0,0,0-.14h0c0-.12,0-.23,0-.35,0-.5.08-1,.11-1.48a2.14,2.14,0,0,0,0-.34c.73-9.61,1.24-18,1.53-23.18.09-1.7.16-3.06.21-4,0-.08,0-.19,0-.31s0-.08,0-.12,0-.28,0-.42a1.28,1.28,0,0,0,0-.19c0-.3,0-.45,0-.45h0a.16.16,0,0,1,.06.08l0,0a5.73,5.73,0,0,1,.58,1.5h0a60.92,60.92,0,0,1,1.23,6.42.78.78,0,0,0,0,.14h0c0,.2.06.41.1.63s0,.35.07.53c.06.4.11.8.17,1.22l.09.72c.17,1.23.33,2.53.49,3.91s.35,3,.52,4.6c0,.41.09.82.13,1.24h0s0,0,0,.06c.06.56.11,1.12.17,1.69C134.8,398.06,137.15,443.94,134.2,449.55Z" style="fill:#ebebeb"></path></g></g></svg>