<?xml version="1.0" encoding="UTF-8" standalone="no"?>
<svg
   id="visual"
   viewBox="0 0 1840 2760"
   width="1840"
   height="2760"
   version="1.1"
   sodipodi:docname="blob-haikei2.svg"
   inkscape:version="1.2 (1:1.2+202206011326+fc4e4096c5)"
   inkscape:export-filename="blob-haikei2.png"
   inkscape:export-xdpi="96"
   inkscape:export-ydpi="96"
   xmlns:inkscape="http://www.inkscape.org/namespaces/inkscape"
   xmlns:sodipodi="http://sodipodi.sourceforge.net/DTD/sodipodi-0.dtd"
   xmlns="http://www.w3.org/2000/svg"
   xmlns:svg="http://www.w3.org/2000/svg">
  <defs
     id="defs11" />
  <sodipodi:namedview
     id="namedview9"
     pagecolor="#ffffff"
     bordercolor="#000000"
     borderopacity="0.25"
     inkscape:showpageshadow="2"
     inkscape:pageopacity="0.0"
     inkscape:pagecheckerboard="0"
     inkscape:deskcolor="#d1d1d1"
     showgrid="false"
     inkscape:zoom="0.22355072"
     inkscape:cx="921.49111"
     inkscape:cy="993.06323"
     inkscape:window-width="1600"
     inkscape:window-height="783"
     inkscape:window-x="0"
     inkscape:window-y="27"
     inkscape:window-maximized="1"
     inkscape:current-layer="visual" />
  <rect
     x="0"
     y="0"
     width="1840"
     height="2760"
     fill="#ffffff"
     id="rect2" />
  <g
     transform="matrix(-0.47097857,-0.57231453,0.82066872,-0.56309416,2055.2031,-631.85623)"
     id="g6"
     inkscape:transform-center-x="331.01858"
     inkscape:transform-center-y="-320.56959">
    <path
       d="M 405.73821,260.73225 C 303.26788,432.18799 12.840543,453.01796 -261.2541,505.04093 -535.44467,557.0637 -793.23557,640.17464 -929.62376,496.14351 -1065.9162,352.11259 -1080.71,-19.060668 -1105.9994,-260.54308 c -25.2892,-241.48235 -61.0736,-353.27393 -146.9002,-564.19156 -85.8936,-210.81296 -221.7336,-520.75196 -172.3487,-757.73336 49.4807,-236.9814 284.0903,-401.0052 600.01979,-423.9287 315.92946,-22.9236 713.08296,95.2531 920.305172,360.7058 207.222148,265.4526 224.608988,678.18126 276.016968,1045.48148 51.43668,367.40489 137.01909,689.486084 34.64458,860.94167"
       fill="#d2e7c4"
       id="path4"
       style="stroke-width:1.00176"
       inkscape:transform-center-x="-99.399673"
       inkscape:transform-center-y="-546.64503" />
  </g>
</svg>
